<?xml version="1.0" encoding="UTF-8" standalone="no"?>
<!DOCTYPE svg PUBLIC "-//W3C//DTD SVG 1.1//EN"
 "http://www.w3.org/Graphics/SVG/1.1/DTD/svg11.dtd">
<!-- Generated by graphviz version 2.43.0 (0)
 -->
<!-- Title: %3 Pages: 1 -->
<svg width="374pt" height="343pt"
 viewBox="0.00 0.00 373.50 343.00" xmlns="http://www.w3.org/2000/svg" xmlns:xlink="http://www.w3.org/1999/xlink">
<g id="graph0" class="graph" transform="scale(1 1) rotate(0) translate(36 307)">
<title>%3</title>
<polygon fill="#f5f5f5" stroke="transparent" points="-36,36 -36,-307 337.5,-307 337.5,36 -36,36"/>
<text text-anchor="middle" x="150.75" y="-10" font-family="Helvetica,sans-Serif" font-size="20.00">Network Topology</text>
<!-- receiver -->
<g id="node1" class="node">
<title>receiver</title>
<path fill="#2e7d32" fill-opacity="0.125490" stroke="transparent" stroke-width="2" d="M67,-271C67,-271 12,-271 12,-271 6,-271 0,-265 0,-259 0,-259 0,-233 0,-233 0,-227 6,-221 12,-221 12,-221 67,-221 67,-221 73,-221 79,-227 79,-233 79,-233 79,-259 79,-259 79,-265 73,-271 67,-271"/>
<text text-anchor="start" x="31" y="-251.8" font-family="Arial" font-size="14.00">🖥️</text>
<text text-anchor="start" x="12.5" y="-233.4" font-family="Helvetica,sans-Serif" font-weight="bold" font-size="12.00">receiver</text>
</g>
<!-- switch -->
<g id="node3" class="node">
<title>switch</title>
<polygon fill="#1565c0" fill-opacity="0.125490" stroke="#1565c0" stroke-width="2" points="164.5,-80 100.5,-80 96.5,-76 96.5,-30 160.5,-30 164.5,-34 164.5,-80"/>
<polyline fill="none" stroke="#1565c0" stroke-width="2" points="160.5,-76 96.5,-76 "/>
<polyline fill="none" stroke="#1565c0" stroke-width="2" points="160.5,-76 160.5,-30 "/>
<polyline fill="none" stroke="#1565c0" stroke-width="2" points="160.5,-76 164.5,-80 "/>
<text text-anchor="start" x="121.5" y="-60.8" font-family="Arial" font-size="14.00">🌐</text>
<text text-anchor="start" x="108.5" y="-42.4" font-family="Helvetica,sans-Serif" font-weight="bold" font-size="12.00">switch</text>
</g>
<!-- receiver&#45;&gt;switch -->
<g id="edge4" class="edge">
<title>receiver&#45;&gt;switch</title>
<path fill="none" stroke="#616161" stroke-width="2" d="M24.13,-220.79C11.42,-197.41 -2.34,-161.6 12.5,-134 28.61,-104.05 61.82,-83.68 88.91,-71.29"/>
<polygon fill="#616161" stroke="#616161" stroke-width="2" points="96.37,-68 90.5,-74.52 92.91,-70.07 89.25,-71.68 89.05,-71.22 88.85,-70.77 92.51,-69.15 87.6,-67.93 96.37,-68 96.37,-68"/>
<text text-anchor="middle" x="39" y="-159" font-family="Helvetica,sans-Serif" font-size="10.00" fill="#424242">link&#45;4</text>
<text text-anchor="middle" x="39" y="-148" font-family="Helvetica,sans-Serif" font-size="10.00" fill="#424242">⏱ 1000ns</text>
<text text-anchor="middle" x="39" y="-137" font-family="Helvetica,sans-Serif" font-size="10.00" fill="#424242">📶 10Gbps</text>
</g>
<!-- sender -->
<g id="node2" class="node">
<title>sender</title>
<path fill="#2e7d32" fill-opacity="0.125490" stroke="transparent" stroke-width="2" d="M245,-271C245,-271 198,-271 198,-271 192,-271 186,-265 186,-259 186,-259 186,-233 186,-233 186,-227 192,-221 198,-221 198,-221 245,-221 245,-221 251,-221 257,-227 257,-233 257,-233 257,-259 257,-259 257,-265 251,-271 245,-271"/>
<text text-anchor="start" x="213" y="-251.8" font-family="Arial" font-size="14.00">🖥️</text>
<text text-anchor="start" x="198.5" y="-233.4" font-family="Helvetica,sans-Serif" font-weight="bold" font-size="12.00">sender</text>
</g>
<!-- sender&#45;&gt;switch -->
<g id="edge1" class="edge">
<title>sender&#45;&gt;switch</title>
<path fill="none" stroke="#616161" stroke-width="2" d="M207.76,-220.66C199.31,-205.41 188.42,-185.24 179.5,-167 166.59,-140.59 153.19,-109.99 143.68,-87.62"/>
<polygon fill="#616161" stroke="#616161" stroke-width="2" points="140.48,-80.07 146.91,-86.03 142.5,-83.55 144.06,-87.24 143.6,-87.43 143.14,-87.63 141.58,-83.94 140.28,-88.84 140.48,-80.07 140.48,-80.07"/>
<text text-anchor="middle" x="206" y="-159" font-family="Helvetica,sans-Serif" font-size="10.00" fill="#424242">link&#45;1</text>
<text text-anchor="middle" x="206" y="-148" font-family="Helvetica,sans-Serif" font-size="10.00" fill="#424242">⏱ 1000ns</text>
<text text-anchor="middle" x="206" y="-137" font-family="Helvetica,sans-Serif" font-size="10.00" fill="#424242">📶 10Gbps</text>
</g>
<!-- switch&#45;&gt;receiver -->
<g id="edge3" class="edge">
<title>switch&#45;&gt;receiver</title>
<path fill="none" stroke="#616161" stroke-width="2" d="M118.83,-80.23C102.55,-114.06 72.96,-175.51 54.88,-213.05"/>
<polygon fill="#616161" stroke="#616161" stroke-width="2" points="51.21,-220.68 51.44,-211.91 52.5,-216.86 54.23,-213.25 54.68,-213.47 55.13,-213.69 53.4,-217.29 57.92,-215.03 51.21,-220.68 51.21,-220.68"/>
<text text-anchor="middle" x="116" y="-159" font-family="Helvetica,sans-Serif" font-size="10.00" fill="#424242">link&#45;3</text>
<text text-anchor="middle" x="116" y="-148" font-family="Helvetica,sans-Serif" font-size="10.00" fill="#424242">⏱ 1000ns</text>
<text text-anchor="middle" x="116" y="-137" font-family="Helvetica,sans-Serif" font-size="10.00" fill="#424242">📶 10Gbps</text>
</g>
<!-- switch&#45;&gt;sender -->
<g id="edge2" class="edge">
<title>switch&#45;&gt;sender</title>
<path fill="none" stroke="#616161" stroke-width="2" d="M164.55,-69.21C191.13,-81.56 226.21,-102.81 242.5,-134 255.39,-158.68 247.53,-190.12 237.96,-213.23"/>
<polygon fill="#616161" stroke="#616161" stroke-width="2" points="234.68,-220.73 234.59,-211.96 235.83,-216.87 237.43,-213.2 237.89,-213.4 238.35,-213.6 236.74,-217.27 241.19,-214.84 234.68,-220.73 234.68,-220.73"/>
<text text-anchor="middle" x="275" y="-159" font-family="Helvetica,sans-Serif" font-size="10.00" fill="#424242">link&#45;2</text>
<text text-anchor="middle" x="275" y="-148" font-family="Helvetica,sans-Serif" font-size="10.00" fill="#424242">⏱ 1000ns</text>
<text text-anchor="middle" x="275" y="-137" font-family="Helvetica,sans-Serif" font-size="10.00" fill="#424242">📶 10Gbps</text>
</g>
</g>
</svg>
