<?xml version="1.0" encoding="UTF-8" standalone="no"?>
<!DOCTYPE svg PUBLIC "-//W3C//DTD SVG 1.1//EN"
 "http://www.w3.org/Graphics/SVG/1.1/DTD/svg11.dtd">
<!-- Generated by graphviz version 2.43.0 (0)
 -->
<!-- Title: %3 Pages: 1 -->
<svg width="1748pt" height="359pt"
 viewBox="0.00 0.00 1748.28 358.89" xmlns="http://www.w3.org/2000/svg" xmlns:xlink="http://www.w3.org/1999/xlink">
<g id="graph0" class="graph" transform="scale(1 1) rotate(0) translate(36 322.89)">
<title>%3</title>
<polygon fill="#f5f5f5" stroke="transparent" points="-36,36 -36,-322.89 1712.28,-322.89 1712.28,36 -36,36"/>
<text text-anchor="middle" x="838.14" y="-10" font-family="Helvetica,sans-Serif" font-size="20.00">Network Topology</text>
<!-- host_1 -->
<g id="node1" class="node">
<title>host_1</title>
<path fill="#2e7d32" fill-opacity="0.125490" stroke="transparent" stroke-width="2" d="M100.78,-286.89C100.78,-286.89 55.78,-286.89 55.78,-286.89 49.78,-286.89 43.78,-280.89 43.78,-274.89 43.78,-274.89 43.78,-248.89 43.78,-248.89 43.78,-242.89 49.78,-236.89 55.78,-236.89 55.78,-236.89 100.78,-236.89 100.78,-236.89 106.78,-236.89 112.78,-242.89 112.78,-248.89 112.78,-248.89 112.78,-274.89 112.78,-274.89 112.78,-280.89 106.78,-286.89 100.78,-286.89"/>
<text text-anchor="start" x="69.78" y="-267.69" font-family="Arial" font-size="14.00">🖥️</text>
<text text-anchor="start" x="56.28" y="-249.29" font-family="Helvetica,sans-Serif" font-weight="bold" font-size="12.00">host_1</text>
</g>
<!-- leaf_1 -->
<g id="node5" class="node">
<title>leaf_1</title>
<polygon fill="#1565c0" fill-opacity="0.125490" stroke="#1565c0" stroke-width="2" points="131.28,-95.89 71.28,-95.89 67.28,-91.89 67.28,-45.89 127.28,-45.89 131.28,-49.89 131.28,-95.89"/>
<polyline fill="none" stroke="#1565c0" stroke-width="2" points="127.28,-91.89 67.28,-91.89 "/>
<polyline fill="none" stroke="#1565c0" stroke-width="2" points="127.28,-91.89 127.28,-45.89 "/>
<polyline fill="none" stroke="#1565c0" stroke-width="2" points="127.28,-91.89 131.28,-95.89 "/>
<text text-anchor="start" x="90.28" y="-76.69" font-family="Arial" font-size="14.00">🌐</text>
<text text-anchor="start" x="79.28" y="-58.29" font-family="Helvetica,sans-Serif" font-weight="bold" font-size="12.00">leaf_1</text>
</g>
<!-- host_1&#45;&gt;leaf_1 -->
<g id="edge18" class="edge">
<title>host_1&#45;&gt;leaf_1</title>
<path fill="none" stroke="#616161" stroke-width="2" d="M44.37,-236.78C18.33,-215.1 -10.82,-181.82 4.28,-149.89 15.91,-125.27 39.55,-105.82 60.33,-92.5"/>
<polygon fill="#616161" stroke="#616161" stroke-width="2" points="67.24,-88.22 62.34,-95.49 64.11,-90.75 60.71,-92.85 60.44,-92.43 60.18,-92 63.58,-89.9 58.55,-89.37 67.24,-88.22 67.24,-88.22"/>
<text text-anchor="middle" x="39.28" y="-174.89" font-family="Helvetica,sans-Serif" font-size="10.00" fill="#424242">host_1&#45;&#45;leaf_1</text>
<text text-anchor="middle" x="39.28" y="-163.89" font-family="Helvetica,sans-Serif" font-size="10.00" fill="#424242">⏱ 0ns</text>
<text text-anchor="middle" x="39.28" y="-152.89" font-family="Helvetica,sans-Serif" font-size="10.00" fill="#424242">📶 100Gbps</text>
</g>
<!-- host_2 -->
<g id="node2" class="node">
<title>host_2</title>
<path fill="#2e7d32" fill-opacity="0.125490" stroke="transparent" stroke-width="2" d="M1307.78,-286.89C1307.78,-286.89 1262.78,-286.89 1262.78,-286.89 1256.78,-286.89 1250.78,-280.89 1250.78,-274.89 1250.78,-274.89 1250.78,-248.89 1250.78,-248.89 1250.78,-242.89 1256.78,-236.89 1262.78,-236.89 1262.78,-236.89 1307.78,-236.89 1307.78,-236.89 1313.78,-236.89 1319.78,-242.89 1319.78,-248.89 1319.78,-248.89 1319.78,-274.89 1319.78,-274.89 1319.78,-280.89 1313.78,-286.89 1307.78,-286.89"/>
<text text-anchor="start" x="1276.78" y="-267.69" font-family="Arial" font-size="14.00">🖥️</text>
<text text-anchor="start" x="1263.28" y="-249.29" font-family="Helvetica,sans-Serif" font-weight="bold" font-size="12.00">host_2</text>
</g>
<!-- leaf_2 -->
<g id="node6" class="node">
<title>leaf_2</title>
<polygon fill="#1565c0" fill-opacity="0.125490" stroke="#1565c0" stroke-width="2" points="1046.28,-95.89 986.28,-95.89 982.28,-91.89 982.28,-45.89 1042.28,-45.89 1046.28,-49.89 1046.28,-95.89"/>
<polyline fill="none" stroke="#1565c0" stroke-width="2" points="1042.28,-91.89 982.28,-91.89 "/>
<polyline fill="none" stroke="#1565c0" stroke-width="2" points="1042.28,-91.89 1042.28,-45.89 "/>
<polyline fill="none" stroke="#1565c0" stroke-width="2" points="1042.28,-91.89 1046.28,-95.89 "/>
<text text-anchor="start" x="1005.28" y="-76.69" font-family="Arial" font-size="14.00">🌐</text>
<text text-anchor="start" x="994.28" y="-58.29" font-family="Helvetica,sans-Serif" font-weight="bold" font-size="12.00">leaf_2</text>
</g>
<!-- host_2&#45;&gt;leaf_2 -->
<g id="edge20" class="edge">
<title>host_2&#45;&gt;leaf_2</title>
<path fill="none" stroke="#616161" stroke-width="2" d="M1250.58,-237.94C1227.43,-222.54 1196.39,-201.71 1169.28,-182.89 1129.46,-155.25 1084.48,-122.92 1053.28,-100.3"/>
<polygon fill="#616161" stroke="#616161" stroke-width="2" points="1046.44,-95.34 1055.03,-97.12 1049.97,-97.28 1053.21,-99.63 1052.91,-100.04 1052.62,-100.44 1049.38,-98.09 1050.8,-102.95 1046.44,-95.34 1046.44,-95.34"/>
<text text-anchor="middle" x="1204.28" y="-174.89" font-family="Helvetica,sans-Serif" font-size="10.00" fill="#424242">host_2&#45;&#45;leaf_2</text>
<text text-anchor="middle" x="1204.28" y="-163.89" font-family="Helvetica,sans-Serif" font-size="10.00" fill="#424242">⏱ 0ns</text>
<text text-anchor="middle" x="1204.28" y="-152.89" font-family="Helvetica,sans-Serif" font-size="10.00" fill="#424242">📶 100Gbps</text>
</g>
<!-- host_3 -->
<g id="node3" class="node">
<title>host_3</title>
<path fill="#2e7d32" fill-opacity="0.125490" stroke="transparent" stroke-width="2" d="M1613.78,-286.89C1613.78,-286.89 1568.78,-286.89 1568.78,-286.89 1562.78,-286.89 1556.78,-280.89 1556.78,-274.89 1556.78,-274.89 1556.78,-248.89 1556.78,-248.89 1556.78,-242.89 1562.78,-236.89 1568.78,-236.89 1568.78,-236.89 1613.78,-236.89 1613.78,-236.89 1619.78,-236.89 1625.78,-242.89 1625.78,-248.89 1625.78,-248.89 1625.78,-274.89 1625.78,-274.89 1625.78,-280.89 1619.78,-286.89 1613.78,-286.89"/>
<text text-anchor="start" x="1582.78" y="-267.69" font-family="Arial" font-size="14.00">🖥️</text>
<text text-anchor="start" x="1569.28" y="-249.29" font-family="Helvetica,sans-Serif" font-weight="bold" font-size="12.00">host_3</text>
</g>
<!-- leaf_3 -->
<g id="node7" class="node">
<title>leaf_3</title>
<polygon fill="#1565c0" fill-opacity="0.125490" stroke="#1565c0" stroke-width="2" points="1451.28,-95.89 1391.28,-95.89 1387.28,-91.89 1387.28,-45.89 1447.28,-45.89 1451.28,-49.89 1451.28,-95.89"/>
<polyline fill="none" stroke="#1565c0" stroke-width="2" points="1447.28,-91.89 1387.28,-91.89 "/>
<polyline fill="none" stroke="#1565c0" stroke-width="2" points="1447.28,-91.89 1447.28,-45.89 "/>
<polyline fill="none" stroke="#1565c0" stroke-width="2" points="1447.28,-91.89 1451.28,-95.89 "/>
<text text-anchor="start" x="1410.28" y="-76.69" font-family="Arial" font-size="14.00">🌐</text>
<text text-anchor="start" x="1399.28" y="-58.29" font-family="Helvetica,sans-Serif" font-weight="bold" font-size="12.00">leaf_3</text>
</g>
<!-- host_3&#45;&gt;leaf_3 -->
<g id="edge22" class="edge">
<title>host_3&#45;&gt;leaf_3</title>
<path fill="none" stroke="#616161" stroke-width="2" d="M1565.76,-236.88C1549.98,-221.75 1529.52,-201.6 1512.28,-182.89 1488.09,-156.64 1462.12,-125.36 1443.79,-102.71"/>
<polygon fill="#616161" stroke="#616161" stroke-width="2" points="1438.6,-96.26 1446.42,-100.23 1441.5,-99.06 1444.01,-102.18 1443.62,-102.49 1443.23,-102.81 1440.72,-99.69 1440.82,-104.75 1438.6,-96.26 1438.6,-96.26"/>
<text text-anchor="middle" x="1547.28" y="-174.89" font-family="Helvetica,sans-Serif" font-size="10.00" fill="#424242">host_3&#45;&#45;leaf_3</text>
<text text-anchor="middle" x="1547.28" y="-163.89" font-family="Helvetica,sans-Serif" font-size="10.00" fill="#424242">⏱ 0ns</text>
<text text-anchor="middle" x="1547.28" y="-152.89" font-family="Helvetica,sans-Serif" font-size="10.00" fill="#424242">📶 100Gbps</text>
</g>
<!-- host_4 -->
<g id="node4" class="node">
<title>host_4</title>
<path fill="#2e7d32" fill-opacity="0.125490" stroke="transparent" stroke-width="2" d="M705.78,-286.89C705.78,-286.89 660.78,-286.89 660.78,-286.89 654.78,-286.89 648.78,-280.89 648.78,-274.89 648.78,-274.89 648.78,-248.89 648.78,-248.89 648.78,-242.89 654.78,-236.89 660.78,-236.89 660.78,-236.89 705.78,-236.89 705.78,-236.89 711.78,-236.89 717.78,-242.89 717.78,-248.89 717.78,-248.89 717.78,-274.89 717.78,-274.89 717.78,-280.89 711.78,-286.89 705.78,-286.89"/>
<text text-anchor="start" x="674.78" y="-267.69" font-family="Arial" font-size="14.00">🖥️</text>
<text text-anchor="start" x="661.28" y="-249.29" font-family="Helvetica,sans-Serif" font-weight="bold" font-size="12.00">host_4</text>
</g>
<!-- leaf_4 -->
<g id="node8" class="node">
<title>leaf_4</title>
<polygon fill="#1565c0" fill-opacity="0.125490" stroke="#1565c0" stroke-width="2" points="588.28,-95.89 528.28,-95.89 524.28,-91.89 524.28,-45.89 584.28,-45.89 588.28,-49.89 588.28,-95.89"/>
<polyline fill="none" stroke="#1565c0" stroke-width="2" points="584.28,-91.89 524.28,-91.89 "/>
<polyline fill="none" stroke="#1565c0" stroke-width="2" points="584.28,-91.89 584.28,-45.89 "/>
<polyline fill="none" stroke="#1565c0" stroke-width="2" points="584.28,-91.89 588.28,-95.89 "/>
<text text-anchor="start" x="547.28" y="-76.69" font-family="Arial" font-size="14.00">🌐</text>
<text text-anchor="start" x="536.28" y="-58.29" font-family="Helvetica,sans-Serif" font-weight="bold" font-size="12.00">leaf_4</text>
</g>
<!-- host_4&#45;&gt;leaf_4 -->
<g id="edge24" class="edge">
<title>host_4&#45;&gt;leaf_4</title>
<path fill="none" stroke="#616161" stroke-width="2" d="M648.59,-258.96C564.85,-253.5 355.41,-234.83 313.28,-182.89 255.31,-111.43 433.13,-84.06 516.1,-75.36"/>
<polygon fill="#616161" stroke="#616161" stroke-width="2" points="524.06,-74.56 516.46,-78.95 520.13,-75.46 516.15,-75.86 516.1,-75.36 516.05,-74.87 520.03,-74.46 515.73,-71.78 524.06,-74.56 524.06,-74.56"/>
<text text-anchor="middle" x="348.28" y="-174.89" font-family="Helvetica,sans-Serif" font-size="10.00" fill="#424242">host_4&#45;&#45;leaf_4</text>
<text text-anchor="middle" x="348.28" y="-163.89" font-family="Helvetica,sans-Serif" font-size="10.00" fill="#424242">⏱ 0ns</text>
<text text-anchor="middle" x="348.28" y="-152.89" font-family="Helvetica,sans-Serif" font-size="10.00" fill="#424242">📶 100Gbps</text>
</g>
<!-- leaf_1&#45;&gt;host_1 -->
<g id="edge17" class="edge">
<title>leaf_1&#45;&gt;host_1</title>
<path fill="none" stroke="#616161" stroke-width="2" d="M96.58,-96.12C92.84,-129.8 86.06,-190.88 81.88,-228.46"/>
<polygon fill="#616161" stroke="#616161" stroke-width="2" points="80.98,-236.57 78.28,-228.22 80.92,-232.53 81.37,-228.56 81.86,-228.61 82.36,-228.67 81.92,-232.65 85.44,-229.01 80.98,-236.57 80.98,-236.57"/>
<text text-anchor="middle" x="125.28" y="-174.89" font-family="Helvetica,sans-Serif" font-size="10.00" fill="#424242">leaf_1&#45;&#45;host_1</text>
<text text-anchor="middle" x="125.28" y="-163.89" font-family="Helvetica,sans-Serif" font-size="10.00" fill="#424242">⏱ 0ns</text>
<text text-anchor="middle" x="125.28" y="-152.89" font-family="Helvetica,sans-Serif" font-size="10.00" fill="#424242">📶 100Gbps</text>
</g>
<!-- spine_1 -->
<g id="node9" class="node">
<title>spine_1</title>
<polygon fill="#1565c0" fill-opacity="0.125490" stroke="#1565c0" stroke-width="2" points="339.78,-95.89 268.78,-95.89 264.78,-91.89 264.78,-45.89 335.78,-45.89 339.78,-49.89 339.78,-95.89"/>
<polyline fill="none" stroke="#1565c0" stroke-width="2" points="335.78,-91.89 264.78,-91.89 "/>
<polyline fill="none" stroke="#1565c0" stroke-width="2" points="335.78,-91.89 335.78,-45.89 "/>
<polyline fill="none" stroke="#1565c0" stroke-width="2" points="335.78,-91.89 339.78,-95.89 "/>
<text text-anchor="start" x="293.78" y="-76.69" font-family="Arial" font-size="14.00">🌐</text>
<text text-anchor="start" x="277.28" y="-58.29" font-family="Helvetica,sans-Serif" font-weight="bold" font-size="12.00">spine_1</text>
</g>
<!-- leaf_1&#45;&gt;spine_1 -->
<g id="edge2" class="edge">
<title>leaf_1&#45;&gt;spine_1</title>
<path fill="none" stroke="#616161" stroke-width="2" d="M131.57,-47.47C140.38,-42.31 150.21,-37.58 160.03,-34.89 176.32,-30.42 219.66,-30.73 236.03,-34.89 243.2,-36.71 250.44,-39.48 257.36,-42.7"/>
<polygon fill="#616161" stroke="#616161" stroke-width="2" points="264.73,-46.34 255.96,-46.03 260.92,-45.02 257.34,-43.25 257.56,-42.8 257.78,-42.35 261.37,-44.12 259.15,-39.57 264.73,-46.34 264.73,-46.34"/>
<text text-anchor="middle" x="198.03" y="-59.89" font-family="Helvetica,sans-Serif" font-size="10.00" fill="#424242">leaf_1&#45;&#45;spine_1</text>
<text text-anchor="middle" x="198.03" y="-48.89" font-family="Helvetica,sans-Serif" font-size="10.00" fill="#424242">⏱ 0ns</text>
<text text-anchor="middle" x="198.03" y="-37.89" font-family="Helvetica,sans-Serif" font-size="10.00" fill="#424242">📶 100Gbps</text>
</g>
<!-- spine_2 -->
<g id="node10" class="node">
<title>spine_2</title>
<polygon fill="#1565c0" fill-opacity="0.125490" stroke="#1565c0" stroke-width="2" points="848.78,-95.89 777.78,-95.89 773.78,-91.89 773.78,-45.89 844.78,-45.89 848.78,-49.89 848.78,-95.89"/>
<polyline fill="none" stroke="#1565c0" stroke-width="2" points="844.78,-91.89 773.78,-91.89 "/>
<polyline fill="none" stroke="#1565c0" stroke-width="2" points="844.78,-91.89 844.78,-45.89 "/>
<polyline fill="none" stroke="#1565c0" stroke-width="2" points="844.78,-91.89 848.78,-95.89 "/>
<text text-anchor="start" x="802.78" y="-76.69" font-family="Arial" font-size="14.00">🌐</text>
<text text-anchor="start" x="786.28" y="-58.29" font-family="Helvetica,sans-Serif" font-weight="bold" font-size="12.00">spine_2</text>
</g>
<!-- leaf_1&#45;&gt;spine_2 -->
<g id="edge10" class="edge">
<title>leaf_1&#45;&gt;spine_2</title>
<path fill="none" stroke="#616161" stroke-width="2" d="M131.33,-78.71C214.6,-98.57 444.95,-150.62 640.28,-167.89 673.92,-170.86 685.14,-180.98 716.28,-167.89 747.53,-154.75 773.64,-125.77 790.54,-102.88"/>
<polygon fill="#616161" stroke="#616161" stroke-width="2" points="795.26,-96.3 793.52,-104.9 793.34,-99.84 791,-103.09 790.59,-102.8 790.19,-102.51 792.52,-99.26 787.67,-100.7 795.26,-96.3 795.26,-96.3"/>
<text text-anchor="middle" x="678.28" y="-174.89" font-family="Helvetica,sans-Serif" font-size="10.00" fill="#424242">leaf_1&#45;&#45;spine_2</text>
<text text-anchor="middle" x="678.28" y="-163.89" font-family="Helvetica,sans-Serif" font-size="10.00" fill="#424242">⏱ 0ns</text>
<text text-anchor="middle" x="678.28" y="-152.89" font-family="Helvetica,sans-Serif" font-size="10.00" fill="#424242">📶 100Gbps</text>
</g>
<!-- leaf_2&#45;&gt;host_2 -->
<g id="edge19" class="edge">
<title>leaf_2&#45;&gt;host_2</title>
<path fill="none" stroke="#616161" stroke-width="2" d="M1046.37,-74.89C1119.56,-82.48 1295.17,-105.07 1330.28,-149.89 1349.03,-173.83 1331.67,-206.64 1313.34,-230.38"/>
<polygon fill="#616161" stroke="#616161" stroke-width="2" points="1308.17,-236.82 1310.37,-228.32 1310.28,-233.38 1312.79,-230.26 1313.18,-230.58 1313.57,-230.89 1311.06,-234.01 1315.98,-232.83 1308.17,-236.82 1308.17,-236.82"/>
<text text-anchor="middle" x="1373.28" y="-174.89" font-family="Helvetica,sans-Serif" font-size="10.00" fill="#424242">leaf_2&#45;&#45;host_2</text>
<text text-anchor="middle" x="1373.28" y="-163.89" font-family="Helvetica,sans-Serif" font-size="10.00" fill="#424242">⏱ 0ns</text>
<text text-anchor="middle" x="1373.28" y="-152.89" font-family="Helvetica,sans-Serif" font-size="10.00" fill="#424242">📶 100Gbps</text>
</g>
<!-- leaf_2&#45;&gt;spine_1 -->
<g id="edge4" class="edge">
<title>leaf_2&#45;&gt;spine_1</title>
<path fill="none" stroke="#616161" stroke-width="2" d="M982.23,-78.71C898.95,-98.58 668.61,-150.66 473.28,-167.89 439.63,-170.85 428.42,-180.98 397.28,-167.89 366.03,-154.75 339.91,-125.77 323.02,-102.88"/>
<polygon fill="#616161" stroke="#616161" stroke-width="2" points="318.29,-96.3 325.88,-100.7 321.03,-99.26 323.37,-102.51 322.96,-102.8 322.55,-103.09 320.22,-99.84 320.04,-104.9 318.29,-96.3 318.29,-96.3"/>
<text text-anchor="middle" x="435.28" y="-174.89" font-family="Helvetica,sans-Serif" font-size="10.00" fill="#424242">leaf_2&#45;&#45;spine_1</text>
<text text-anchor="middle" x="435.28" y="-163.89" font-family="Helvetica,sans-Serif" font-size="10.00" fill="#424242">⏱ 0ns</text>
<text text-anchor="middle" x="435.28" y="-152.89" font-family="Helvetica,sans-Serif" font-size="10.00" fill="#424242">📶 100Gbps</text>
</g>
<!-- leaf_2&#45;&gt;spine_2 -->
<g id="edge12" class="edge">
<title>leaf_2&#45;&gt;spine_2</title>
<path fill="none" stroke="#616161" stroke-width="2" d="M981.99,-47.47C973.18,-42.31 963.34,-37.58 953.53,-34.89 937.24,-30.42 893.9,-30.73 877.53,-34.89 870.35,-36.71 863.12,-39.48 856.19,-42.7"/>
<polygon fill="#616161" stroke="#616161" stroke-width="2" points="848.82,-46.34 854.4,-39.57 852.19,-44.12 855.78,-42.35 856,-42.8 856.22,-43.25 852.63,-45.02 857.59,-46.03 848.82,-46.34 848.82,-46.34"/>
<text text-anchor="middle" x="915.53" y="-59.89" font-family="Helvetica,sans-Serif" font-size="10.00" fill="#424242">leaf_2&#45;&#45;spine_2</text>
<text text-anchor="middle" x="915.53" y="-48.89" font-family="Helvetica,sans-Serif" font-size="10.00" fill="#424242">⏱ 0ns</text>
<text text-anchor="middle" x="915.53" y="-37.89" font-family="Helvetica,sans-Serif" font-size="10.00" fill="#424242">📶 100Gbps</text>
</g>
<!-- leaf_3&#45;&gt;host_3 -->
<g id="edge21" class="edge">
<title>leaf_3&#45;&gt;host_3</title>
<path fill="none" stroke="#616161" stroke-width="2" d="M1451.58,-75.59C1493.25,-82.29 1564.18,-100.66 1596.28,-149.89 1611.36,-173.01 1608.01,-204.98 1602.13,-228.67"/>
<polygon fill="#616161" stroke="#616161" stroke-width="2" points="1599.97,-236.67 1598.58,-228.01 1600.53,-232.68 1601.57,-228.82 1602.06,-228.95 1602.54,-229.08 1601.5,-232.94 1605.53,-229.89 1599.97,-236.67 1599.97,-236.67"/>
<text text-anchor="middle" x="1641.28" y="-174.89" font-family="Helvetica,sans-Serif" font-size="10.00" fill="#424242">leaf_3&#45;&#45;host_3</text>
<text text-anchor="middle" x="1641.28" y="-163.89" font-family="Helvetica,sans-Serif" font-size="10.00" fill="#424242">⏱ 0ns</text>
<text text-anchor="middle" x="1641.28" y="-152.89" font-family="Helvetica,sans-Serif" font-size="10.00" fill="#424242">📶 100Gbps</text>
</g>
<!-- leaf_3&#45;&gt;spine_1 -->
<g id="edge6" class="edge">
<title>leaf_3&#45;&gt;spine_1</title>
<path fill="none" stroke="#616161" stroke-width="2" d="M1386.95,-81.98C1297.32,-111.47 1037.81,-188.21 819.28,-167.89 642.96,-151.49 437.14,-104.28 347.66,-82.35"/>
<polygon fill="#616161" stroke="#616161" stroke-width="2" points="339.88,-80.43 348.51,-78.85 343.89,-80.9 347.77,-81.86 347.65,-82.34 347.53,-82.83 343.65,-81.87 346.79,-85.84 339.88,-80.43 339.88,-80.43"/>
<text text-anchor="middle" x="857.28" y="-174.89" font-family="Helvetica,sans-Serif" font-size="10.00" fill="#424242">leaf_3&#45;&#45;spine_1</text>
<text text-anchor="middle" x="857.28" y="-163.89" font-family="Helvetica,sans-Serif" font-size="10.00" fill="#424242">⏱ 0ns</text>
<text text-anchor="middle" x="857.28" y="-152.89" font-family="Helvetica,sans-Serif" font-size="10.00" fill="#424242">📶 100Gbps</text>
</g>
<!-- leaf_3&#45;&gt;spine_2 -->
<g id="edge14" class="edge">
<title>leaf_3&#45;&gt;spine_2</title>
<path fill="none" stroke="#616161" stroke-width="2" d="M1404.43,-96.27C1389.03,-119.82 1362.54,-153.37 1329.28,-167.89 1243.9,-205.14 966.65,-121.77 856.75,-86.09"/>
<polygon fill="#616161" stroke="#616161" stroke-width="2" points="849.13,-83.61 857.85,-82.66 853.09,-84.37 856.89,-85.61 856.74,-86.09 856.58,-86.56 852.78,-85.32 855.62,-89.51 849.13,-83.61 849.13,-83.61"/>
<text text-anchor="middle" x="1291.28" y="-174.89" font-family="Helvetica,sans-Serif" font-size="10.00" fill="#424242">leaf_3&#45;&#45;spine_2</text>
<text text-anchor="middle" x="1291.28" y="-163.89" font-family="Helvetica,sans-Serif" font-size="10.00" fill="#424242">⏱ 0ns</text>
<text text-anchor="middle" x="1291.28" y="-152.89" font-family="Helvetica,sans-Serif" font-size="10.00" fill="#424242">📶 100Gbps</text>
</g>
<!-- leaf_4&#45;&gt;host_4 -->
<g id="edge23" class="edge">
<title>leaf_4&#45;&gt;host_4</title>
<path fill="none" stroke="#616161" stroke-width="2" d="M588.31,-76.6C685.38,-91.02 970.47,-134.53 983.28,-149.89 1055.4,-236.38 824.99,-255.5 726.11,-259.7"/>
<polygon fill="#616161" stroke="#616161" stroke-width="2" points="718.09,-260.03 725.94,-256.11 722.06,-259.37 726.06,-259.21 726.08,-259.71 726.1,-260.2 722.1,-260.36 726.23,-263.3 718.09,-260.03 718.09,-260.03"/>
<text text-anchor="middle" x="1031.28" y="-174.89" font-family="Helvetica,sans-Serif" font-size="10.00" fill="#424242">leaf_4&#45;&#45;host_4</text>
<text text-anchor="middle" x="1031.28" y="-163.89" font-family="Helvetica,sans-Serif" font-size="10.00" fill="#424242">⏱ 0ns</text>
<text text-anchor="middle" x="1031.28" y="-152.89" font-family="Helvetica,sans-Serif" font-size="10.00" fill="#424242">📶 100Gbps</text>
</g>
<!-- leaf_4&#45;&gt;spine_1 -->
<g id="edge8" class="edge">
<title>leaf_4&#45;&gt;spine_1</title>
<path fill="none" stroke="#616161" stroke-width="2" d="M524.07,-53.87C508.26,-46.46 488.64,-38.62 470.03,-34.89 436.91,-28.25 427.22,-28.61 394.03,-34.89 378.42,-37.84 362.07,-43.38 347.57,-49.25"/>
<polygon fill="#616161" stroke="#616161" stroke-width="2" points="340.16,-52.34 346.16,-45.94 343.66,-50.34 347.36,-48.8 347.55,-49.26 347.74,-49.72 344.05,-51.26 348.93,-52.58 340.16,-52.34 340.16,-52.34"/>
<text text-anchor="middle" x="432.03" y="-59.89" font-family="Helvetica,sans-Serif" font-size="10.00" fill="#424242">leaf_4&#45;&#45;spine_1</text>
<text text-anchor="middle" x="432.03" y="-48.89" font-family="Helvetica,sans-Serif" font-size="10.00" fill="#424242">⏱ 0ns</text>
<text text-anchor="middle" x="432.03" y="-37.89" font-family="Helvetica,sans-Serif" font-size="10.00" fill="#424242">📶 100Gbps</text>
</g>
<!-- leaf_4&#45;&gt;spine_2 -->
<g id="edge16" class="edge">
<title>leaf_4&#45;&gt;spine_2</title>
<path fill="none" stroke="#616161" stroke-width="2" d="M588.68,-53.87C604.59,-46.45 624.32,-38.61 643.03,-34.89 676.15,-28.29 685.83,-28.64 719.03,-34.89 734.85,-37.87 751.45,-43.48 766.13,-49.41"/>
<polygon fill="#616161" stroke="#616161" stroke-width="2" points="773.62,-52.53 764.85,-52.78 769.74,-51.45 766.04,-49.92 766.23,-49.46 766.43,-48.99 770.12,-50.53 767.62,-46.13 773.62,-52.53 773.62,-52.53"/>
<text text-anchor="middle" x="681.03" y="-59.89" font-family="Helvetica,sans-Serif" font-size="10.00" fill="#424242">leaf_4&#45;&#45;spine_2</text>
<text text-anchor="middle" x="681.03" y="-48.89" font-family="Helvetica,sans-Serif" font-size="10.00" fill="#424242">⏱ 0ns</text>
<text text-anchor="middle" x="681.03" y="-37.89" font-family="Helvetica,sans-Serif" font-size="10.00" fill="#424242">📶 100Gbps</text>
</g>
<!-- spine_1&#45;&gt;leaf_1 -->
<g id="edge1" class="edge">
<title>spine_1&#45;&gt;leaf_1</title>
<path fill="none" stroke="#616161" stroke-width="2" d="M264.74,-70.89C229.3,-70.89 176.28,-70.89 139.86,-70.89"/>
<polygon fill="#616161" stroke="#616161" stroke-width="2" points="131.44,-70.89 139.44,-67.29 135.44,-70.39 139.44,-70.39 139.44,-70.89 139.44,-71.39 135.44,-71.39 139.44,-74.49 131.44,-70.89 131.44,-70.89"/>
<text text-anchor="middle" x="198.03" y="-98.89" font-family="Helvetica,sans-Serif" font-size="10.00" fill="#424242">spine_1&#45;&#45;leaf_1</text>
<text text-anchor="middle" x="198.03" y="-87.89" font-family="Helvetica,sans-Serif" font-size="10.00" fill="#424242">⏱ 0ns</text>
<text text-anchor="middle" x="198.03" y="-76.89" font-family="Helvetica,sans-Serif" font-size="10.00" fill="#424242">📶 100Gbps</text>
</g>
<!-- spine_1&#45;&gt;leaf_2 -->
<g id="edge3" class="edge">
<title>spine_1&#45;&gt;leaf_2</title>
<path fill="none" stroke="#616161" stroke-width="2" d="M318.29,-96.3C334.8,-119.89 362.94,-153.46 397.28,-167.89 428.42,-180.98 439.63,-170.85 473.28,-167.89 662.7,-151.18 885.04,-101.71 974.27,-80.6"/>
<polygon fill="#616161" stroke="#616161" stroke-width="2" points="982.23,-78.71 975.28,-84.06 978.45,-80.12 974.56,-81.05 974.45,-80.56 974.33,-80.07 978.22,-79.15 973.61,-77.06 982.23,-78.71 982.23,-78.71"/>
<text text-anchor="middle" x="435.28" y="-174.89" font-family="Helvetica,sans-Serif" font-size="10.00" fill="#424242">spine_1&#45;&#45;leaf_2</text>
<text text-anchor="middle" x="435.28" y="-163.89" font-family="Helvetica,sans-Serif" font-size="10.00" fill="#424242">⏱ 0ns</text>
<text text-anchor="middle" x="435.28" y="-152.89" font-family="Helvetica,sans-Serif" font-size="10.00" fill="#424242">📶 100Gbps</text>
</g>
<!-- spine_1&#45;&gt;leaf_3 -->
<g id="edge5" class="edge">
<title>spine_1&#45;&gt;leaf_3</title>
<path fill="none" stroke="#616161" stroke-width="2" d="M339.88,-80.43C424.69,-101.41 637.64,-151 819.28,-167.89 1031.84,-187.65 1283.16,-115.6 1379.23,-84.5"/>
<polygon fill="#616161" stroke="#616161" stroke-width="2" points="1386.95,-81.98 1380.47,-87.89 1383.31,-83.7 1379.5,-84.94 1379.35,-84.46 1379.19,-83.99 1383,-82.75 1378.23,-81.04 1386.95,-81.98 1386.95,-81.98"/>
<text text-anchor="middle" x="857.28" y="-174.89" font-family="Helvetica,sans-Serif" font-size="10.00" fill="#424242">spine_1&#45;&#45;leaf_3</text>
<text text-anchor="middle" x="857.28" y="-163.89" font-family="Helvetica,sans-Serif" font-size="10.00" fill="#424242">⏱ 0ns</text>
<text text-anchor="middle" x="857.28" y="-152.89" font-family="Helvetica,sans-Serif" font-size="10.00" fill="#424242">📶 100Gbps</text>
</g>
<!-- spine_1&#45;&gt;leaf_4 -->
<g id="edge7" class="edge">
<title>spine_1&#45;&gt;leaf_4</title>
<path fill="none" stroke="#616161" stroke-width="2" d="M340.03,-70.89C387.19,-70.89 467.55,-70.89 515.9,-70.89"/>
<polygon fill="#616161" stroke="#616161" stroke-width="2" points="523.96,-70.89 515.96,-74.49 519.96,-71.39 515.96,-71.39 515.96,-70.89 515.96,-70.39 519.96,-70.39 515.96,-67.29 523.96,-70.89 523.96,-70.89"/>
<text text-anchor="middle" x="432.03" y="-98.89" font-family="Helvetica,sans-Serif" font-size="10.00" fill="#424242">spine_1&#45;&#45;leaf_4</text>
<text text-anchor="middle" x="432.03" y="-87.89" font-family="Helvetica,sans-Serif" font-size="10.00" fill="#424242">⏱ 0ns</text>
<text text-anchor="middle" x="432.03" y="-76.89" font-family="Helvetica,sans-Serif" font-size="10.00" fill="#424242">📶 100Gbps</text>
</g>
<!-- spine_2&#45;&gt;leaf_1 -->
<g id="edge9" class="edge">
<title>spine_2&#45;&gt;leaf_1</title>
<path fill="none" stroke="#616161" stroke-width="2" d="M795.26,-96.3C778.75,-119.89 750.61,-153.46 716.28,-167.89 685.14,-180.98 673.92,-170.86 640.28,-167.89 450.86,-151.14 228.52,-101.69 139.29,-80.6"/>
<polygon fill="#616161" stroke="#616161" stroke-width="2" points="131.33,-78.71 139.94,-77.05 135.33,-79.14 139.22,-80.07 139.11,-80.55 138.99,-81.04 135.1,-80.12 138.28,-84.06 131.33,-78.71 131.33,-78.71"/>
<text text-anchor="middle" x="678.28" y="-174.89" font-family="Helvetica,sans-Serif" font-size="10.00" fill="#424242">spine_2&#45;&#45;leaf_1</text>
<text text-anchor="middle" x="678.28" y="-163.89" font-family="Helvetica,sans-Serif" font-size="10.00" fill="#424242">⏱ 0ns</text>
<text text-anchor="middle" x="678.28" y="-152.89" font-family="Helvetica,sans-Serif" font-size="10.00" fill="#424242">📶 100Gbps</text>
</g>
<!-- spine_2&#45;&gt;leaf_2 -->
<g id="edge11" class="edge">
<title>spine_2&#45;&gt;leaf_2</title>
<path fill="none" stroke="#616161" stroke-width="2" d="M848.98,-70.89C884.44,-70.89 937.36,-70.89 973.71,-70.89"/>
<polygon fill="#616161" stroke="#616161" stroke-width="2" points="982.12,-70.89 974.12,-74.49 978.12,-71.39 974.12,-71.39 974.12,-70.89 974.12,-70.39 978.12,-70.39 974.12,-67.29 982.12,-70.89 982.12,-70.89"/>
<text text-anchor="middle" x="915.53" y="-98.89" font-family="Helvetica,sans-Serif" font-size="10.00" fill="#424242">spine_2&#45;&#45;leaf_2</text>
<text text-anchor="middle" x="915.53" y="-87.89" font-family="Helvetica,sans-Serif" font-size="10.00" fill="#424242">⏱ 0ns</text>
<text text-anchor="middle" x="915.53" y="-76.89" font-family="Helvetica,sans-Serif" font-size="10.00" fill="#424242">📶 100Gbps</text>
</g>
<!-- spine_2&#45;&gt;leaf_3 -->
<g id="edge13" class="edge">
<title>spine_2&#45;&gt;leaf_3</title>
<path fill="none" stroke="#616161" stroke-width="2" d="M849.13,-83.61C953.23,-117.7 1241.85,-206.03 1329.28,-167.89 1359.43,-154.73 1384,-125.95 1399.81,-103.13"/>
<polygon fill="#616161" stroke="#616161" stroke-width="2" points="1404.43,-96.27 1402.95,-104.91 1402.61,-99.86 1400.38,-103.18 1399.97,-102.9 1399.55,-102.62 1401.79,-99.31 1396.98,-100.89 1404.43,-96.27 1404.43,-96.27"/>
<text text-anchor="middle" x="1291.28" y="-174.89" font-family="Helvetica,sans-Serif" font-size="10.00" fill="#424242">spine_2&#45;&#45;leaf_3</text>
<text text-anchor="middle" x="1291.28" y="-163.89" font-family="Helvetica,sans-Serif" font-size="10.00" fill="#424242">⏱ 0ns</text>
<text text-anchor="middle" x="1291.28" y="-152.89" font-family="Helvetica,sans-Serif" font-size="10.00" fill="#424242">📶 100Gbps</text>
</g>
<!-- spine_2&#45;&gt;leaf_4 -->
<g id="edge15" class="edge">
<title>spine_2&#45;&gt;leaf_4</title>
<path fill="none" stroke="#616161" stroke-width="2" d="M773.36,-70.89C725.87,-70.89 644.88,-70.89 596.39,-70.89"/>
<polygon fill="#616161" stroke="#616161" stroke-width="2" points="588.31,-70.89 596.31,-67.29 592.31,-70.39 596.31,-70.39 596.31,-70.89 596.31,-71.39 592.31,-71.39 596.31,-74.49 588.31,-70.89 588.31,-70.89"/>
<text text-anchor="middle" x="681.03" y="-98.89" font-family="Helvetica,sans-Serif" font-size="10.00" fill="#424242">spine_2&#45;&#45;leaf_4</text>
<text text-anchor="middle" x="681.03" y="-87.89" font-family="Helvetica,sans-Serif" font-size="10.00" fill="#424242">⏱ 0ns</text>
<text text-anchor="middle" x="681.03" y="-76.89" font-family="Helvetica,sans-Serif" font-size="10.00" fill="#424242">📶 100Gbps</text>
</g>
</g>
</svg>
