<?xml version="1.0" encoding="UTF-8" standalone="no"?>
<!DOCTYPE svg PUBLIC "-//W3C//DTD SVG 1.1//EN"
 "http://www.w3.org/Graphics/SVG/1.1/DTD/svg11.dtd">
<!-- Generated by graphviz version 2.43.0 (0)
 -->
<!-- Title: %3 Pages: 1 -->
<svg width="1362pt" height="343pt"
 viewBox="0.00 0.00 1361.50 343.00" xmlns="http://www.w3.org/2000/svg" xmlns:xlink="http://www.w3.org/1999/xlink">
<g id="graph0" class="graph" transform="scale(1 1) rotate(0) translate(36 307)">
<title>%3</title>
<polygon fill="#f5f5f5" stroke="transparent" points="-36,36 -36,-307 1325.5,-307 1325.5,36 -36,36"/>
<text text-anchor="middle" x="644.75" y="-10" font-family="Helvetica,sans-Serif" font-size="20.00">Network Topology</text>
<!-- receiver -->
<g id="node1" class="node">
<title>receiver</title>
<path fill="#2e7d32" fill-opacity="0.125490" stroke="transparent" stroke-width="2" d="M67,-271C67,-271 12,-271 12,-271 6,-271 0,-265 0,-259 0,-259 0,-233 0,-233 0,-227 6,-221 12,-221 12,-221 67,-221 67,-221 73,-221 79,-227 79,-233 79,-233 79,-259 79,-259 79,-265 73,-271 67,-271"/>
<text text-anchor="start" x="31" y="-251.8" font-family="Arial" font-size="14.00">🖥️</text>
<text text-anchor="start" x="12.5" y="-233.4" font-family="Helvetica,sans-Serif" font-weight="bold" font-size="12.00">receiver</text>
</g>
<!-- switch -->
<g id="node7" class="node">
<title>switch</title>
<polygon fill="#1565c0" fill-opacity="0.125490" stroke="#1565c0" stroke-width="2" points="683.5,-80 619.5,-80 615.5,-76 615.5,-30 679.5,-30 683.5,-34 683.5,-80"/>
<polyline fill="none" stroke="#1565c0" stroke-width="2" points="679.5,-76 615.5,-76 "/>
<polyline fill="none" stroke="#1565c0" stroke-width="2" points="679.5,-76 679.5,-30 "/>
<polyline fill="none" stroke="#1565c0" stroke-width="2" points="679.5,-76 683.5,-80 "/>
<text text-anchor="start" x="640.5" y="-60.8" font-family="Arial" font-size="14.00">🌐</text>
<text text-anchor="start" x="627.5" y="-42.4" font-family="Helvetica,sans-Serif" font-weight="bold" font-size="12.00">switch</text>
</g>
<!-- receiver&#45;&gt;switch -->
<g id="edge12" class="edge">
<title>receiver&#45;&gt;switch</title>
<path fill="none" stroke="#616161" stroke-width="2" d="M25.21,-220.69C12.71,-195.88 -0.47,-157.73 20.5,-134 59.44,-89.93 471.96,-65.07 606.98,-58.07"/>
<polygon fill="#616161" stroke="#616161" stroke-width="2" points="615.09,-57.65 607.29,-61.66 611.13,-58.36 607.13,-58.56 607.11,-58.06 607.08,-57.56 611.07,-57.36 606.92,-54.47 615.09,-57.65 615.09,-57.65"/>
<text text-anchor="middle" x="50" y="-159" font-family="Helvetica,sans-Serif" font-size="10.00" fill="#424242">link11</text>
<text text-anchor="middle" x="50" y="-148" font-family="Helvetica,sans-Serif" font-size="10.00" fill="#424242">⏱ 0ns</text>
<text text-anchor="middle" x="50" y="-137" font-family="Helvetica,sans-Serif" font-size="10.00" fill="#424242">📶 100Gbps</text>
</g>
<!-- sender&#45;1 -->
<g id="node2" class="node">
<title>sender&#45;1</title>
<path fill="#2e7d32" fill-opacity="0.125490" stroke="transparent" stroke-width="2" d="M314,-271C314,-271 253,-271 253,-271 247,-271 241,-265 241,-259 241,-259 241,-233 241,-233 241,-227 247,-221 253,-221 253,-221 314,-221 314,-221 320,-221 326,-227 326,-233 326,-233 326,-259 326,-259 326,-265 320,-271 314,-271"/>
<text text-anchor="start" x="275" y="-251.8" font-family="Arial" font-size="14.00">🖥️</text>
<text text-anchor="start" x="253.5" y="-233.4" font-family="Helvetica,sans-Serif" font-weight="bold" font-size="12.00">sender&#45;1</text>
</g>
<!-- sender&#45;1&#45;&gt;switch -->
<g id="edge1" class="edge">
<title>sender&#45;1&#45;&gt;switch</title>
<path fill="none" stroke="#616161" stroke-width="2" d="M250.42,-220.79C222.48,-197.42 190.4,-161.6 213.5,-134 263.55,-74.21 507.91,-60.2 607.32,-56.96"/>
<polygon fill="#616161" stroke="#616161" stroke-width="2" points="615.35,-56.71 607.47,-60.56 611.37,-57.33 607.37,-57.46 607.36,-56.96 607.34,-56.46 611.34,-56.33 607.25,-53.36 615.35,-56.71 615.35,-56.71"/>
<text text-anchor="middle" x="243" y="-159" font-family="Helvetica,sans-Serif" font-size="10.00" fill="#424242">link0</text>
<text text-anchor="middle" x="243" y="-148" font-family="Helvetica,sans-Serif" font-size="10.00" fill="#424242">⏱ 0ns</text>
<text text-anchor="middle" x="243" y="-137" font-family="Helvetica,sans-Serif" font-size="10.00" fill="#424242">📶 100Gbps</text>
</g>
<!-- sender&#45;2 -->
<g id="node3" class="node">
<title>sender&#45;2</title>
<path fill="#2e7d32" fill-opacity="0.125490" stroke="transparent" stroke-width="2" d="M558,-271C558,-271 497,-271 497,-271 491,-271 485,-265 485,-259 485,-259 485,-233 485,-233 485,-227 491,-221 497,-221 497,-221 558,-221 558,-221 564,-221 570,-227 570,-233 570,-233 570,-259 570,-259 570,-265 564,-271 558,-271"/>
<text text-anchor="start" x="519" y="-251.8" font-family="Arial" font-size="14.00">🖥️</text>
<text text-anchor="start" x="497.5" y="-233.4" font-family="Helvetica,sans-Serif" font-weight="bold" font-size="12.00">sender&#45;2</text>
</g>
<!-- sender&#45;2&#45;&gt;switch -->
<g id="edge3" class="edge">
<title>sender&#45;2&#45;&gt;switch</title>
<path fill="none" stroke="#616161" stroke-width="2" d="M494.72,-220.92C467.99,-198.25 437.65,-163.48 457.5,-134 490.86,-84.44 561.71,-66.36 607.39,-59.77"/>
<polygon fill="#616161" stroke="#616161" stroke-width="2" points="615.33,-58.7 607.88,-63.33 611.43,-59.73 607.47,-60.26 607.4,-59.77 607.33,-59.27 611.3,-58.74 606.92,-56.2 615.33,-58.7 615.33,-58.7"/>
<text text-anchor="middle" x="487" y="-159" font-family="Helvetica,sans-Serif" font-size="10.00" fill="#424242">link2</text>
<text text-anchor="middle" x="487" y="-148" font-family="Helvetica,sans-Serif" font-size="10.00" fill="#424242">⏱ 0ns</text>
<text text-anchor="middle" x="487" y="-137" font-family="Helvetica,sans-Serif" font-size="10.00" fill="#424242">📶 100Gbps</text>
</g>
<!-- sender&#45;3 -->
<g id="node4" class="node">
<title>sender&#45;3</title>
<path fill="#2e7d32" fill-opacity="0.125490" stroke="transparent" stroke-width="2" d="M802,-271C802,-271 741,-271 741,-271 735,-271 729,-265 729,-259 729,-259 729,-233 729,-233 729,-227 735,-221 741,-221 741,-221 802,-221 802,-221 808,-221 814,-227 814,-233 814,-233 814,-259 814,-259 814,-265 808,-271 802,-271"/>
<text text-anchor="start" x="763" y="-251.8" font-family="Arial" font-size="14.00">🖥️</text>
<text text-anchor="start" x="741.5" y="-233.4" font-family="Helvetica,sans-Serif" font-weight="bold" font-size="12.00">sender&#45;3</text>
</g>
<!-- sender&#45;3&#45;&gt;switch -->
<g id="edge5" class="edge">
<title>sender&#45;3&#45;&gt;switch</title>
<path fill="none" stroke="#616161" stroke-width="2" d="M746.48,-220.91C732.13,-206.22 714.46,-186.57 701.5,-167 684.83,-141.81 670.65,-110.43 661.34,-87.46"/>
<polygon fill="#616161" stroke="#616161" stroke-width="2" points="658.37,-80.02 664.68,-86.12 660.31,-83.55 661.8,-87.26 661.33,-87.45 660.87,-87.64 659.39,-83.92 657.99,-88.78 658.37,-80.02 658.37,-80.02"/>
<text text-anchor="middle" x="731" y="-159" font-family="Helvetica,sans-Serif" font-size="10.00" fill="#424242">link4</text>
<text text-anchor="middle" x="731" y="-148" font-family="Helvetica,sans-Serif" font-size="10.00" fill="#424242">⏱ 0ns</text>
<text text-anchor="middle" x="731" y="-137" font-family="Helvetica,sans-Serif" font-size="10.00" fill="#424242">📶 100Gbps</text>
</g>
<!-- sender&#45;4 -->
<g id="node5" class="node">
<title>sender&#45;4</title>
<path fill="#2e7d32" fill-opacity="0.125490" stroke="transparent" stroke-width="2" d="M1071,-271C1071,-271 1010,-271 1010,-271 1004,-271 998,-265 998,-259 998,-259 998,-233 998,-233 998,-227 1004,-221 1010,-221 1010,-221 1071,-221 1071,-221 1077,-221 1083,-227 1083,-233 1083,-233 1083,-259 1083,-259 1083,-265 1077,-271 1071,-271"/>
<text text-anchor="start" x="1032" y="-251.8" font-family="Arial" font-size="14.00">🖥️</text>
<text text-anchor="start" x="1010.5" y="-233.4" font-family="Helvetica,sans-Serif" font-weight="bold" font-size="12.00">sender&#45;4</text>
</g>
<!-- sender&#45;4&#45;&gt;switch -->
<g id="edge7" class="edge">
<title>sender&#45;4&#45;&gt;switch</title>
<path fill="none" stroke="#616161" stroke-width="2" d="M1003.7,-220.79C966.52,-196.92 906.93,-160.3 852.5,-134 798.37,-107.84 733.04,-84.05 691.38,-69.8"/>
<polygon fill="#616161" stroke="#616161" stroke-width="2" points="683.63,-67.16 692.36,-66.33 687.58,-67.98 691.37,-69.26 691.21,-69.74 691.04,-70.21 687.26,-68.92 690.05,-73.15 683.63,-67.16 683.63,-67.16"/>
<text text-anchor="middle" x="940" y="-159" font-family="Helvetica,sans-Serif" font-size="10.00" fill="#424242">link6</text>
<text text-anchor="middle" x="940" y="-148" font-family="Helvetica,sans-Serif" font-size="10.00" fill="#424242">⏱ 0ns</text>
<text text-anchor="middle" x="940" y="-137" font-family="Helvetica,sans-Serif" font-size="10.00" fill="#424242">📶 100Gbps</text>
</g>
<!-- sender&#45;5 -->
<g id="node6" class="node">
<title>sender&#45;5</title>
<path fill="#2e7d32" fill-opacity="0.125490" stroke="transparent" stroke-width="2" d="M1264,-271C1264,-271 1203,-271 1203,-271 1197,-271 1191,-265 1191,-259 1191,-259 1191,-233 1191,-233 1191,-227 1197,-221 1203,-221 1203,-221 1264,-221 1264,-221 1270,-221 1276,-227 1276,-233 1276,-233 1276,-259 1276,-259 1276,-265 1270,-271 1264,-271"/>
<text text-anchor="start" x="1225" y="-251.8" font-family="Arial" font-size="14.00">🖥️</text>
<text text-anchor="start" x="1203.5" y="-233.4" font-family="Helvetica,sans-Serif" font-weight="bold" font-size="12.00">sender&#45;5</text>
</g>
<!-- sender&#45;5&#45;&gt;switch -->
<g id="edge9" class="edge">
<title>sender&#45;5&#45;&gt;switch</title>
<path fill="none" stroke="#616161" stroke-width="2" d="M1208.52,-220.93C1180.29,-195.19 1131.82,-155.21 1082.5,-134 947.77,-76.07 771.56,-61.16 691.89,-57.33"/>
<polygon fill="#616161" stroke="#616161" stroke-width="2" points="683.57,-56.95 691.73,-53.71 687.59,-56.63 691.59,-56.81 691.56,-57.31 691.54,-57.81 687.54,-57.63 691.4,-60.91 683.57,-56.95 683.57,-56.95"/>
<text text-anchor="middle" x="1169" y="-159" font-family="Helvetica,sans-Serif" font-size="10.00" fill="#424242">link8</text>
<text text-anchor="middle" x="1169" y="-148" font-family="Helvetica,sans-Serif" font-size="10.00" fill="#424242">⏱ 0ns</text>
<text text-anchor="middle" x="1169" y="-137" font-family="Helvetica,sans-Serif" font-size="10.00" fill="#424242">📶 100Gbps</text>
</g>
<!-- switch&#45;&gt;receiver -->
<g id="edge11" class="edge">
<title>switch&#45;&gt;receiver</title>
<path fill="none" stroke="#616161" stroke-width="2" d="M615.29,-58.01C513.78,-64.48 216.1,-87.06 132.5,-134 99.44,-152.56 73.05,-187.78 56.95,-213.59"/>
<polygon fill="#616161" stroke="#616161" stroke-width="2" points="52.69,-220.59 53.77,-211.89 54.34,-216.92 56.42,-213.5 56.85,-213.76 57.27,-214.02 55.19,-217.44 59.92,-215.63 52.69,-220.59 52.69,-220.59"/>
<text text-anchor="middle" x="162" y="-159" font-family="Helvetica,sans-Serif" font-size="10.00" fill="#424242">link10</text>
<text text-anchor="middle" x="162" y="-148" font-family="Helvetica,sans-Serif" font-size="10.00" fill="#424242">⏱ 0ns</text>
<text text-anchor="middle" x="162" y="-137" font-family="Helvetica,sans-Serif" font-size="10.00" fill="#424242">📶 100Gbps</text>
</g>
<!-- switch&#45;&gt;sender&#45;1 -->
<g id="edge2" class="edge">
<title>switch&#45;&gt;sender&#45;1</title>
<path fill="none" stroke="#616161" stroke-width="2" d="M615.07,-59.4C560.72,-66.11 453.42,-84.94 377.5,-134 345.9,-154.42 319.24,-188.67 302.48,-213.73"/>
<polygon fill="#616161" stroke="#616161" stroke-width="2" points="298.02,-220.54 299.39,-211.88 299.79,-216.92 301.98,-213.58 302.4,-213.85 302.82,-214.12 300.63,-217.47 305.41,-215.82 298.02,-220.54 298.02,-220.54"/>
<text text-anchor="middle" x="407" y="-159" font-family="Helvetica,sans-Serif" font-size="10.00" fill="#424242">link1</text>
<text text-anchor="middle" x="407" y="-148" font-family="Helvetica,sans-Serif" font-size="10.00" fill="#424242">⏱ 0ns</text>
<text text-anchor="middle" x="407" y="-137" font-family="Helvetica,sans-Serif" font-size="10.00" fill="#424242">📶 100Gbps</text>
</g>
<!-- switch&#45;&gt;sender&#45;2 -->
<g id="edge4" class="edge">
<title>switch&#45;&gt;sender&#45;2</title>
<path fill="none" stroke="#616161" stroke-width="2" d="M624.48,-80.09C610.13,-94.78 592.46,-114.43 579.5,-134 562.83,-159.19 548.65,-190.57 539.34,-213.54"/>
<polygon fill="#616161" stroke="#616161" stroke-width="2" points="536.37,-220.98 535.99,-212.22 537.39,-217.08 538.87,-213.36 539.33,-213.55 539.8,-213.74 538.31,-217.45 542.68,-214.88 536.37,-220.98 536.37,-220.98"/>
<text text-anchor="middle" x="609" y="-159" font-family="Helvetica,sans-Serif" font-size="10.00" fill="#424242">link3</text>
<text text-anchor="middle" x="609" y="-148" font-family="Helvetica,sans-Serif" font-size="10.00" fill="#424242">⏱ 0ns</text>
<text text-anchor="middle" x="609" y="-137" font-family="Helvetica,sans-Serif" font-size="10.00" fill="#424242">📶 100Gbps</text>
</g>
<!-- switch&#45;&gt;sender&#45;3 -->
<g id="edge6" class="edge">
<title>switch&#45;&gt;sender&#45;3</title>
<path fill="none" stroke="#616161" stroke-width="2" d="M683.54,-67.45C712.43,-79.19 752.05,-100.51 770.5,-134 783.73,-158.01 782.57,-189.6 778.92,-212.94"/>
<polygon fill="#616161" stroke="#616161" stroke-width="2" points="777.55,-220.83 775.37,-212.33 777.74,-216.8 778.43,-212.86 778.92,-212.95 779.41,-213.03 778.73,-216.97 782.47,-213.56 777.55,-220.83 777.55,-220.83"/>
<text text-anchor="middle" x="809" y="-159" font-family="Helvetica,sans-Serif" font-size="10.00" fill="#424242">link5</text>
<text text-anchor="middle" x="809" y="-148" font-family="Helvetica,sans-Serif" font-size="10.00" fill="#424242">⏱ 0ns</text>
<text text-anchor="middle" x="809" y="-137" font-family="Helvetica,sans-Serif" font-size="10.00" fill="#424242">📶 100Gbps</text>
</g>
<!-- switch&#45;&gt;sender&#45;4 -->
<g id="edge8" class="edge">
<title>switch&#45;&gt;sender&#45;4</title>
<path fill="none" stroke="#616161" stroke-width="2" d="M683.72,-60.3C759.11,-70.36 936.57,-97.35 983.5,-134 1008.77,-153.73 1023.87,-187.74 1032.12,-212.93"/>
<polygon fill="#616161" stroke="#616161" stroke-width="2" points="1034.56,-220.77 1028.74,-214.2 1032.89,-217.1 1031.7,-213.28 1032.18,-213.13 1032.66,-212.98 1033.84,-216.8 1035.62,-212.06 1034.56,-220.77 1034.56,-220.77"/>
<text text-anchor="middle" x="1039" y="-159" font-family="Helvetica,sans-Serif" font-size="10.00" fill="#424242">link7</text>
<text text-anchor="middle" x="1039" y="-148" font-family="Helvetica,sans-Serif" font-size="10.00" fill="#424242">⏱ 0ns</text>
<text text-anchor="middle" x="1039" y="-137" font-family="Helvetica,sans-Serif" font-size="10.00" fill="#424242">📶 100Gbps</text>
</g>
<!-- switch&#45;&gt;sender&#45;5 -->
<g id="edge10" class="edge">
<title>switch&#45;&gt;sender&#45;5</title>
<path fill="none" stroke="#616161" stroke-width="2" d="M683.81,-55.73C793.99,-55.61 1136.02,-61.2 1212.5,-134 1233.43,-153.92 1237.23,-187.68 1236.67,-212.75"/>
<polygon fill="#616161" stroke="#616161" stroke-width="2" points="1236.34,-220.89 1233.07,-212.75 1236,-216.87 1236.17,-212.88 1236.67,-212.9 1237.17,-212.92 1237,-216.91 1240.27,-213.04 1236.34,-220.89 1236.34,-220.89"/>
<text text-anchor="middle" x="1260" y="-159" font-family="Helvetica,sans-Serif" font-size="10.00" fill="#424242">link9</text>
<text text-anchor="middle" x="1260" y="-148" font-family="Helvetica,sans-Serif" font-size="10.00" fill="#424242">⏱ 0ns</text>
<text text-anchor="middle" x="1260" y="-137" font-family="Helvetica,sans-Serif" font-size="10.00" fill="#424242">📶 100Gbps</text>
</g>
</g>
</svg>
