<?xml version="1.0" encoding="UTF-8" standalone="no"?>
<!DOCTYPE svg PUBLIC "-//W3C//DTD SVG 1.1//EN"
 "http://www.w3.org/Graphics/SVG/1.1/DTD/svg11.dtd">
<!-- Generated by graphviz version 2.43.0 (0)
 -->
<!-- Title: %3 Pages: 1 -->
<svg width="1156pt" height="343pt"
 viewBox="0.00 0.00 1156.26 343.00" xmlns="http://www.w3.org/2000/svg" xmlns:xlink="http://www.w3.org/1999/xlink">
<g id="graph0" class="graph" transform="scale(1 1) rotate(0) translate(36 307)">
<title>%3</title>
<polygon fill="#f5f5f5" stroke="transparent" points="-36,36 -36,-307 1120.26,-307 1120.26,36 -36,36"/>
<text text-anchor="middle" x="542.13" y="-10" font-family="Helvetica,sans-Serif" font-size="20.00">Network Topology</text>
<!-- host&#45;1 -->
<g id="node1" class="node">
<title>host&#45;1</title>
<path fill="#2e7d32" fill-opacity="0.125490" stroke="transparent" stroke-width="2" d="M100.26,-271C100.26,-271 56.26,-271 56.26,-271 50.26,-271 44.26,-265 44.26,-259 44.26,-259 44.26,-233 44.26,-233 44.26,-227 50.26,-221 56.26,-221 56.26,-221 100.26,-221 100.26,-221 106.26,-221 112.26,-227 112.26,-233 112.26,-233 112.26,-259 112.26,-259 112.26,-265 106.26,-271 100.26,-271"/>
<text text-anchor="start" x="69.26" y="-251.8" font-family="Arial" font-size="14.00">🖥️</text>
<text text-anchor="start" x="56.26" y="-233.4" font-family="Helvetica,sans-Serif" font-weight="bold" font-size="12.00">host&#45;1</text>
</g>
<!-- switch -->
<g id="node6" class="node">
<title>switch</title>
<polygon fill="#1565c0" fill-opacity="0.125490" stroke="#1565c0" stroke-width="2" points="600.26,-80 536.26,-80 532.26,-76 532.26,-30 596.26,-30 600.26,-34 600.26,-80"/>
<polyline fill="none" stroke="#1565c0" stroke-width="2" points="596.26,-76 532.26,-76 "/>
<polyline fill="none" stroke="#1565c0" stroke-width="2" points="596.26,-76 596.26,-30 "/>
<polyline fill="none" stroke="#1565c0" stroke-width="2" points="596.26,-76 600.26,-80 "/>
<text text-anchor="start" x="557.26" y="-60.8" font-family="Arial" font-size="14.00">🌐</text>
<text text-anchor="start" x="544.26" y="-42.4" font-family="Helvetica,sans-Serif" font-weight="bold" font-size="12.00">switch</text>
</g>
<!-- host&#45;1&#45;&gt;switch -->
<g id="edge1" class="edge">
<title>host&#45;1&#45;&gt;switch</title>
<path fill="none" stroke="#616161" stroke-width="2" d="M45.22,-220.82C17.04,-197.3 -15.44,-161.24 8.26,-134 42.15,-95.04 399.74,-67.29 524,-58.76"/>
<polygon fill="#616161" stroke="#616161" stroke-width="2" points="532.19,-58.2 524.45,-62.33 528.23,-58.97 524.24,-59.24 524.21,-58.74 524.17,-58.24 528.17,-57.97 523.96,-55.15 532.19,-58.2 532.19,-58.2"/>
<text text-anchor="middle" x="37.76" y="-159" font-family="Helvetica,sans-Serif" font-size="10.00" fill="#424242">fwd&#45;1</text>
<text text-anchor="middle" x="37.76" y="-148" font-family="Helvetica,sans-Serif" font-size="10.00" fill="#424242">⏱ 0ns</text>
<text text-anchor="middle" x="37.76" y="-137" font-family="Helvetica,sans-Serif" font-size="10.00" fill="#424242">📶 100Gbps</text>
</g>
<!-- host&#45;2 -->
<g id="node2" class="node">
<title>host&#45;2</title>
<path fill="#2e7d32" fill-opacity="0.125490" stroke="transparent" stroke-width="2" d="M344.26,-271C344.26,-271 300.26,-271 300.26,-271 294.26,-271 288.26,-265 288.26,-259 288.26,-259 288.26,-233 288.26,-233 288.26,-227 294.26,-221 300.26,-221 300.26,-221 344.26,-221 344.26,-221 350.26,-221 356.26,-227 356.26,-233 356.26,-233 356.26,-259 356.26,-259 356.26,-265 350.26,-271 344.26,-271"/>
<text text-anchor="start" x="313.26" y="-251.8" font-family="Arial" font-size="14.00">🖥️</text>
<text text-anchor="start" x="300.26" y="-233.4" font-family="Helvetica,sans-Serif" font-weight="bold" font-size="12.00">host&#45;2</text>
</g>
<!-- host&#45;2&#45;&gt;switch -->
<g id="edge2" class="edge">
<title>host&#45;2&#45;&gt;switch</title>
<path fill="none" stroke="#616161" stroke-width="2" d="M289.33,-220.9C261.75,-197.77 230.16,-162.27 252.26,-134 285.56,-91.41 446.31,-68.77 524.02,-60.16"/>
<polygon fill="#616161" stroke="#616161" stroke-width="2" points="532.17,-59.27 524.61,-63.71 528.25,-60.2 524.27,-60.63 524.22,-60.14 524.17,-59.64 528.14,-59.21 523.83,-56.56 532.17,-59.27 532.17,-59.27"/>
<text text-anchor="middle" x="281.76" y="-159" font-family="Helvetica,sans-Serif" font-size="10.00" fill="#424242">fwd&#45;2</text>
<text text-anchor="middle" x="281.76" y="-148" font-family="Helvetica,sans-Serif" font-size="10.00" fill="#424242">⏱ 0ns</text>
<text text-anchor="middle" x="281.76" y="-137" font-family="Helvetica,sans-Serif" font-size="10.00" fill="#424242">📶 100Gbps</text>
</g>
<!-- host&#45;3 -->
<g id="node3" class="node">
<title>host&#45;3</title>
<path fill="#2e7d32" fill-opacity="0.125490" stroke="transparent" stroke-width="2" d="M588.26,-271C588.26,-271 544.26,-271 544.26,-271 538.26,-271 532.26,-265 532.26,-259 532.26,-259 532.26,-233 532.26,-233 532.26,-227 538.26,-221 544.26,-221 544.26,-221 588.26,-221 588.26,-221 594.26,-221 600.26,-227 600.26,-233 600.26,-233 600.26,-259 600.26,-259 600.26,-265 594.26,-271 588.26,-271"/>
<text text-anchor="start" x="557.26" y="-251.8" font-family="Arial" font-size="14.00">🖥️</text>
<text text-anchor="start" x="544.26" y="-233.4" font-family="Helvetica,sans-Serif" font-weight="bold" font-size="12.00">host&#45;3</text>
</g>
<!-- host&#45;3&#45;&gt;switch -->
<g id="edge3" class="edge">
<title>host&#45;3&#45;&gt;switch</title>
<path fill="none" stroke="#616161" stroke-width="2" d="M536.06,-220.98C521.01,-207.03 504.33,-188.07 496.26,-167 484.9,-137.31 506.71,-107.01 528.92,-85.59"/>
<polygon fill="#616161" stroke="#616161" stroke-width="2" points="534.86,-80.06 531.45,-88.15 532.27,-83.15 529.34,-85.88 529,-85.51 528.66,-85.14 531.59,-82.42 526.55,-82.87 534.86,-80.06 534.86,-80.06"/>
<text text-anchor="middle" x="525.76" y="-159" font-family="Helvetica,sans-Serif" font-size="10.00" fill="#424242">fwd&#45;3</text>
<text text-anchor="middle" x="525.76" y="-148" font-family="Helvetica,sans-Serif" font-size="10.00" fill="#424242">⏱ 0ns</text>
<text text-anchor="middle" x="525.76" y="-137" font-family="Helvetica,sans-Serif" font-size="10.00" fill="#424242">📶 100Gbps</text>
</g>
<!-- host&#45;4 -->
<g id="node4" class="node">
<title>host&#45;4</title>
<path fill="#2e7d32" fill-opacity="0.125490" stroke="transparent" stroke-width="2" d="M861.26,-271C861.26,-271 817.26,-271 817.26,-271 811.26,-271 805.26,-265 805.26,-259 805.26,-259 805.26,-233 805.26,-233 805.26,-227 811.26,-221 817.26,-221 817.26,-221 861.26,-221 861.26,-221 867.26,-221 873.26,-227 873.26,-233 873.26,-233 873.26,-259 873.26,-259 873.26,-265 867.26,-271 861.26,-271"/>
<text text-anchor="start" x="830.26" y="-251.8" font-family="Arial" font-size="14.00">🖥️</text>
<text text-anchor="start" x="817.26" y="-233.4" font-family="Helvetica,sans-Serif" font-weight="bold" font-size="12.00">host&#45;4</text>
</g>
<!-- host&#45;4&#45;&gt;switch -->
<g id="edge4" class="edge">
<title>host&#45;4&#45;&gt;switch</title>
<path fill="none" stroke="#616161" stroke-width="2" d="M805.24,-221.45C754.93,-186.62 660.87,-121.5 606.97,-84.18"/>
<polygon fill="#616161" stroke="#616161" stroke-width="2" points="600.29,-79.55 608.91,-81.15 603.86,-81.42 607.15,-83.7 606.86,-84.11 606.58,-84.52 603.29,-82.24 604.81,-87.07 600.29,-79.55 600.29,-79.55"/>
<text text-anchor="middle" x="747.76" y="-159" font-family="Helvetica,sans-Serif" font-size="10.00" fill="#424242">fwd&#45;4</text>
<text text-anchor="middle" x="747.76" y="-148" font-family="Helvetica,sans-Serif" font-size="10.00" fill="#424242">⏱ 0ns</text>
<text text-anchor="middle" x="747.76" y="-137" font-family="Helvetica,sans-Serif" font-size="10.00" fill="#424242">📶 100Gbps</text>
</g>
<!-- host&#45;5 -->
<g id="node5" class="node">
<title>host&#45;5</title>
<path fill="#2e7d32" fill-opacity="0.125490" stroke="transparent" stroke-width="2" d="M1046.26,-271C1046.26,-271 1002.26,-271 1002.26,-271 996.26,-271 990.26,-265 990.26,-259 990.26,-259 990.26,-233 990.26,-233 990.26,-227 996.26,-221 1002.26,-221 1002.26,-221 1046.26,-221 1046.26,-221 1052.26,-221 1058.26,-227 1058.26,-233 1058.26,-233 1058.26,-259 1058.26,-259 1058.26,-265 1052.26,-271 1046.26,-271"/>
<text text-anchor="start" x="1015.26" y="-251.8" font-family="Arial" font-size="14.00">🖥️</text>
<text text-anchor="start" x="1002.26" y="-233.4" font-family="Helvetica,sans-Serif" font-weight="bold" font-size="12.00">host&#45;5</text>
</g>
<!-- host&#45;5&#45;&gt;switch -->
<g id="edge5" class="edge">
<title>host&#45;5&#45;&gt;switch</title>
<path fill="none" stroke="#616161" stroke-width="2" d="M1001.33,-220.93C975.83,-195.56 932.26,-156.27 887.26,-134 794.05,-87.86 671.81,-67.95 608.44,-60.26"/>
<polygon fill="#616161" stroke="#616161" stroke-width="2" points="600.27,-59.3 608.64,-56.66 604.31,-59.27 608.28,-59.73 608.22,-60.23 608.16,-60.73 604.19,-60.26 607.8,-63.81 600.27,-59.3 600.27,-59.3"/>
<text text-anchor="middle" x="965.76" y="-159" font-family="Helvetica,sans-Serif" font-size="10.00" fill="#424242">fwd&#45;5</text>
<text text-anchor="middle" x="965.76" y="-148" font-family="Helvetica,sans-Serif" font-size="10.00" fill="#424242">⏱ 0ns</text>
<text text-anchor="middle" x="965.76" y="-137" font-family="Helvetica,sans-Serif" font-size="10.00" fill="#424242">📶 100Gbps</text>
</g>
<!-- switch&#45;&gt;host&#45;1 -->
<g id="edge6" class="edge">
<title>switch&#45;&gt;host&#45;1</title>
<path fill="none" stroke="#616161" stroke-width="2" d="M532.15,-55.35C460.24,-55.47 289.93,-63.8 171.26,-134 138.63,-153.31 112.17,-188.39 95.93,-213.96"/>
<polygon fill="#616161" stroke="#616161" stroke-width="2" points="91.63,-220.9 92.79,-212.2 93.31,-217.24 95.42,-213.84 95.85,-214.1 96.27,-214.37 94.16,-217.76 98.9,-216 91.63,-220.9 91.63,-220.9"/>
<text text-anchor="middle" x="200.76" y="-159" font-family="Helvetica,sans-Serif" font-size="10.00" fill="#424242">back&#45;1</text>
<text text-anchor="middle" x="200.76" y="-148" font-family="Helvetica,sans-Serif" font-size="10.00" fill="#424242">⏱ 0ns</text>
<text text-anchor="middle" x="200.76" y="-137" font-family="Helvetica,sans-Serif" font-size="10.00" fill="#424242">📶 100Gbps</text>
</g>
<!-- switch&#45;&gt;host&#45;2 -->
<g id="edge7" class="edge">
<title>switch&#45;&gt;host&#45;2</title>
<path fill="none" stroke="#616161" stroke-width="2" d="M532.06,-69.85C500.84,-83.46 454.36,-106.18 419.26,-134 389.93,-157.25 362.45,-190.16 344.29,-214.11"/>
<polygon fill="#616161" stroke="#616161" stroke-width="2" points="339.42,-220.61 341.33,-212.05 341.41,-217.11 343.81,-213.91 344.21,-214.21 344.61,-214.51 342.21,-217.71 347.09,-216.37 339.42,-220.61 339.42,-220.61"/>
<text text-anchor="middle" x="448.76" y="-159" font-family="Helvetica,sans-Serif" font-size="10.00" fill="#424242">back&#45;2</text>
<text text-anchor="middle" x="448.76" y="-148" font-family="Helvetica,sans-Serif" font-size="10.00" fill="#424242">⏱ 0ns</text>
<text text-anchor="middle" x="448.76" y="-137" font-family="Helvetica,sans-Serif" font-size="10.00" fill="#424242">📶 100Gbps</text>
</g>
<!-- switch&#45;&gt;host&#45;3 -->
<g id="edge8" class="edge">
<title>switch&#45;&gt;host&#45;3</title>
<path fill="none" stroke="#616161" stroke-width="2" d="M566.26,-80.23C566.26,-113.92 566.26,-174.99 566.26,-212.58"/>
<polygon fill="#616161" stroke="#616161" stroke-width="2" points="566.26,-220.68 562.66,-212.68 565.76,-216.68 565.76,-212.68 566.26,-212.68 566.76,-212.68 566.76,-216.68 569.86,-212.68 566.26,-220.68 566.26,-220.68"/>
<text text-anchor="middle" x="595.76" y="-159" font-family="Helvetica,sans-Serif" font-size="10.00" fill="#424242">back&#45;3</text>
<text text-anchor="middle" x="595.76" y="-148" font-family="Helvetica,sans-Serif" font-size="10.00" fill="#424242">⏱ 0ns</text>
<text text-anchor="middle" x="595.76" y="-137" font-family="Helvetica,sans-Serif" font-size="10.00" fill="#424242">📶 100Gbps</text>
</g>
<!-- switch&#45;&gt;host&#45;4 -->
<g id="edge9" class="edge">
<title>switch&#45;&gt;host&#45;4</title>
<path fill="none" stroke="#616161" stroke-width="2" d="M600.36,-59.26C648.63,-65.58 737.02,-83.65 791.26,-134 813.8,-154.92 826.26,-188.23 832.8,-212.91"/>
<polygon fill="#616161" stroke="#616161" stroke-width="2" points="834.79,-220.91 829.36,-214.02 833.34,-217.15 832.37,-213.27 832.86,-213.15 833.34,-213.03 834.31,-216.91 836.35,-212.28 834.79,-220.91 834.79,-220.91"/>
<text text-anchor="middle" x="843.76" y="-159" font-family="Helvetica,sans-Serif" font-size="10.00" fill="#424242">back&#45;4</text>
<text text-anchor="middle" x="843.76" y="-148" font-family="Helvetica,sans-Serif" font-size="10.00" fill="#424242">⏱ 0ns</text>
<text text-anchor="middle" x="843.76" y="-137" font-family="Helvetica,sans-Serif" font-size="10.00" fill="#424242">📶 100Gbps</text>
</g>
<!-- switch&#45;&gt;host&#45;5 -->
<g id="edge10" class="edge">
<title>switch&#45;&gt;host&#45;5</title>
<path fill="none" stroke="#616161" stroke-width="2" d="M600.53,-57C694.47,-60.47 952.86,-75.29 1009.26,-134 1028.99,-154.54 1031.06,-187.9 1029.21,-212.7"/>
<polygon fill="#616161" stroke="#616161" stroke-width="2" points="1028.46,-220.75 1025.62,-212.44 1028.33,-216.72 1028.71,-212.73 1029.21,-212.78 1029.7,-212.83 1029.33,-216.81 1032.79,-213.12 1028.46,-220.75 1028.46,-220.75"/>
<text text-anchor="middle" x="1054.76" y="-159" font-family="Helvetica,sans-Serif" font-size="10.00" fill="#424242">back&#45;5</text>
<text text-anchor="middle" x="1054.76" y="-148" font-family="Helvetica,sans-Serif" font-size="10.00" fill="#424242">⏱ 0ns</text>
<text text-anchor="middle" x="1054.76" y="-137" font-family="Helvetica,sans-Serif" font-size="10.00" fill="#424242">📶 100Gbps</text>
</g>
</g>
</svg>
